<svg xmlns="http://www.w3.org/2000/svg" viewBox="0 0 1079.42 695.68"><defs><style>.cls-1{fill:none;}.cls-2{fill:#310f0f;}</style></defs><g id="Layer_2" data-name="Layer 2"><line class="cls-1" x1="848.01" y1="695.68" x2="848.01" y2="7"/><path class="cls-2" d="M425.2,525.33a203.23,203.23,0,0,0,62.55,32.84,270.53,270.53,0,0,0,70.43,12.42c24.3,1.18,49.16,0,73.06-4.77,23.4-4.64,47-13.76,64-31.06,15.15-15.42,25.47-37.26,23.06-59.23-1.08-9.81-4.94-21.53-14.64-26s-19,3.26-20.27,13c-1.46,11.31,7.33,21.53,15.48,28.2a68.77,68.77,0,0,0,28,13.59,71.49,71.49,0,0,0,60.08-13,81.38,81.38,0,0,0,30.39-54.59c2.58-23-5.22-46.37-19.36-64.41A91.8,91.8,0,0,0,786.38,360c-1.44-1.27-3.57.84-2.12,2.12,16.45,14.5,27.68,35.06,30.09,56.94a78.47,78.47,0,0,1-17.45,58.4c-13.11,15.84-32.12,25.61-52.8,25.75-20,.14-42-8.54-53.41-25.66-3-4.57-5.28-10.2-4.13-15.76,1-4.63,4-9.18,8.83-10.37,10.5-2.58,17.26,10.46,19.06,18.74,4.49,20.76-3.8,42.35-17.28,58.07-15,17.52-36.57,27.49-58.63,32.89-22.37,5.47-45.86,7.08-68.84,6.8a281.28,281.28,0,0,1-67.49-8.68,210.73,210.73,0,0,1-61.3-26.38q-7-4.53-13.59-9.67c-1.51-1.18-3.64.93-2.12,2.12Z" transform="translate(-129.58)"/><path class="cls-2" d="M784.17,362.4l3.52,13.21a2.15,2.15,0,0,0,3.46,1.08l9.87-8.42a2.14,2.14,0,0,0-.67-3.64L787,359.83A2.14,2.14,0,0,0,784.17,362.4Z" transform="translate(-129.58)"/><path class="cls-2" d="M1209,0V641c-12.29-13-33.45-27.4-45.57-25.38-16.65,2.78-36.87-34.5-39.25-43.23s-17.44-30.14-28.15-35.7-23.79-3.17-32.51-15.47-28.55-27.76-51.94-31.33c-19.13-2.92-6.17,1.85-34-19.74-6.2-4.8-14.42-10.92-25.48-18.73-60.66-42.84-54.71-70.21-82.07-85.68s-48-21-62.24-26.57-43.22,9.52-54.71,9.91,11.49,14.68-7.14,16.66a20.52,20.52,0,0,0-3.48.66c-14,3.92-6.68,20.84-20.7,22-15.07,1.19-46.39-26.18-59.87-32.52-10.78-5.08-23-2.12-27.75,0-6.48-9.52-17.21-29.91-8.33-35.31a53.93,53.93,0,0,0,25-38.87c2.38-18.64-25-70.2-45.2-118.19s-50.35-59.9-69.78-75-112.2,3.57-138.76,4-32.91,11.1-39.65,17.85c-5.39,5.39-13.61,4.62-17,3.57-8.73-18.65-25.78-23.8-35.29-30.94-5.49-4.11-22.95-4.41-38.13-4.15-11.16.19-21.09.68-24.12.18-7.13-1.19-22.59-16.26-30.52-22.21C206,52,192,49,185.74,48c-10.36-4.26-35-19.55-56.16-48Z" transform="translate(-129.58)"/></g></svg>