<svg xmlns="http://www.w3.org/2000/svg" viewBox="0 0 1095.21 703.18"><defs><style>.cls-1{fill:none;}.cls-2{fill:#310f0f;}</style></defs><g id="Layer_2" data-name="Layer 2"><line class="cls-1" x1="853.3" y1="703.18" x2="853.3" y2="14.5"/><path class="cls-2" d="M1367.5.5l-1.36,661.6c-4.36-13.09-38.06-41.25-54.71-38.48s-36.87-34.5-39.25-43.23-17.44-30.14-28.15-35.7-23.79-3.17-32.51-15.47-28.55-27.76-51.94-31.33,1.2,4.36-59.47-38.47-54.71-70.21-82.07-85.68-48-21-62.24-26.57-43.22,9.52-54.71,9.91,11.49,14.68-7.14,16.66a20.52,20.52,0,0,0-3.48.66c-14,3.92-6.68,20.84-20.7,22-15.07,1.19-46.39-26.18-59.87-32.52-10.78-5.08-23-2.12-27.75,0-6.48-9.52-17.21-29.91-8.33-35.31a53.93,53.93,0,0,0,25-38.87c2.38-18.64-25-70.2-45.2-118.19s-50.35-59.9-69.78-75-112.2,3.57-138.76,4-32.91,11.1-39.65,17.85c-5.39,5.39-13.61,4.62-17,3.57-8.73-18.65-25.78-23.8-35.29-30.94-5.49-4.11-22.95-4.41-38.13-4.15-11.16.19-21.09.68-24.12.18-7.13-1.19-22.59-16.26-30.52-22.21C354,60,340,57,333.74,56,322.51,51.41,294.49,33.82,272.29.5Z" transform="translate(-272.29 -0.5)"/><path class="cls-2" d="M606.53,631.83c23.06,10,47.91,15.27,73,16.38,25.43,1.13,51-1.83,75.74-7.64,23.72-5.57,47.52-13.41,69-25,20.31-10.89,39.09-26.23,49.58-47.15,9.7-19.34,12.65-42.94,3.32-63-4.05-8.7-12.8-19.05-23.57-17.57-10.32,1.42-14.2,13.47-10.78,22.25,4,10.21,14.65,16.69,24.37,20.57A69.8,69.8,0,0,0,899,535.21a71.84,71.84,0,0,0,53.75-31.76,81.77,81.77,0,0,0,11.79-61.88c-4.56-21.18-17.58-40-34.82-52.92a92.92,92.92,0,0,0-13.63-8.45c-1.72-.87-3.24,1.72-1.52,2.59a91,91,0,0,1,42,44,78.86,78.86,0,0,1,1.4,60c-7.45,19.46-22.77,35.36-42.68,42-19.46,6.5-42.15,4.58-59.14-7.42-7.92-5.61-15.63-16.27-9.3-25.92a10.65,10.65,0,0,1,12.25-4.13c5,1.5,9.21,5.42,12.13,9.61,5.86,8.36,8.4,19.21,8.67,29.28a76.94,76.94,0,0,1-5.9,30.84c-8.37,20.58-24.86,36.29-43.59,47.63-19.63,11.9-41.71,19.8-63.76,25.88a291.59,291.59,0,0,1-71.59,10.83c-23.86.46-47.84-2.51-70.58-9.92q-8.37-2.73-16.44-6.24c-1.75-.76-3.28,1.82-1.51,2.59Z" transform="translate(-272.29 -0.5)"/><path class="cls-2" d="M914.51,383.07l6.75,12a2.16,2.16,0,0,0,3.64.18l7.47-10.67a2.15,2.15,0,0,0-1.57-3.38l-14.22-1.29A2.15,2.15,0,0,0,914.51,383.07Z" transform="translate(-272.29 -0.5)"/></g></svg>