<svg width="1811" height="1061" viewBox="0 0 1811 1061" fill="none" xmlns="http://www.w3.org/2000/svg">
<g clip-path="url(#clip0)">
<rect width="1811" height="1061" fill="#FFF59D"/>
<rect x="193" width="21" height="1061" fill="#310F0F"/>
<rect x="341" width="20" height="1061" fill="#310F0F"/>
<rect y="173" width="20" height="1098" transform="rotate(-90 0 173)" fill="#310F0F"/>
<rect y="534" width="20" height="1098" transform="rotate(-90 0 534)" fill="#310F0F"/>
<rect y="920" width="20" height="1098" transform="rotate(-90 0 920)" fill="#310F0F"/>
<rect x="488" width="21" height="1061" fill="#310F0F"/>
<rect x="636" width="20" height="1061" fill="#310F0F"/>
<rect x="783" width="20" height="1064" fill="#310F0F"/>
<rect x="930" width="21" height="1064" fill="#310F0F"/>
<rect x="1078" width="20" height="1064" fill="#310F0F"/>
<rect x="46" width="20" height="1061" fill="#310F0F"/>
<path d="M1185.2 73.792C1181.89 73.792 1178.86 73.192 1176.13 71.992C1173.39 70.744 1171.06 69.04 1169.14 66.88C1167.22 64.672 1165.71 62.008 1164.61 58.888C1163.55 55.768 1163.02 52.336 1163.02 48.592C1163.02 44.56 1163.6 40.888 1164.75 37.576C1165.95 34.264 1167.61 31.456 1169.72 29.152C1171.88 26.8 1174.47 24.976 1177.5 23.68C1180.52 22.384 1183.86 21.736 1187.5 21.736C1190.29 21.736 1193.1 22.24 1195.93 23.248C1198.76 24.256 1201.06 25.576 1202.84 27.208L1196.43 35.128C1195.04 33.928 1193.55 33.064 1191.97 32.536C1190.43 31.96 1188.66 31.672 1186.64 31.672C1182.56 31.672 1179.44 33.184 1177.28 36.208C1175.12 39.184 1174.04 43.432 1174.04 48.952C1175.62 46.696 1177.54 44.944 1179.8 43.696C1182.06 42.448 1184.43 41.824 1186.93 41.824C1189.38 41.824 1191.63 42.208 1193.7 42.976C1195.81 43.744 1197.61 44.8 1199.1 46.144C1200.58 47.44 1201.74 49.048 1202.55 50.968C1203.42 52.84 1203.85 54.88 1203.85 57.088C1203.85 59.488 1203.37 61.72 1202.41 63.784C1201.5 65.8 1200.2 67.552 1198.52 69.04C1196.89 70.528 1194.92 71.704 1192.62 72.568C1190.36 73.384 1187.89 73.792 1185.2 73.792ZM1185.06 50.464C1182.99 50.464 1181.07 50.848 1179.3 51.616C1177.57 52.384 1176.03 53.464 1174.69 54.856C1175.41 57.736 1176.63 60.04 1178.36 61.768C1180.14 63.448 1182.22 64.288 1184.62 64.288C1186.98 64.288 1188.94 63.64 1190.53 62.344C1192.16 61 1192.98 59.32 1192.98 57.304C1192.98 55.288 1192.23 53.656 1190.74 52.408C1189.3 51.112 1187.41 50.464 1185.06 50.464ZM1216.33 61.552V44.848H1209.13V35.848H1216.33V25.552L1227.99 23.176V35.848H1237.93V44.848H1227.99V59.248C1227.99 60.88 1228.35 62.032 1229.07 62.704C1229.84 63.376 1231.11 63.712 1232.89 63.712C1233.56 63.712 1234.23 63.664 1234.91 63.568C1235.58 63.472 1236.49 63.256 1237.64 62.92V72.352C1236.59 72.688 1235.29 72.952 1233.75 73.144C1232.22 73.384 1230.85 73.504 1229.65 73.504C1225.28 73.504 1221.97 72.496 1219.71 70.48C1217.46 68.464 1216.33 65.488 1216.33 61.552ZM1244.41 73V21.52L1256.08 19.72V41.896C1257.52 39.736 1259.22 38.104 1261.19 37C1263.2 35.848 1265.41 35.272 1267.81 35.272C1271.41 35.272 1274.36 36.472 1276.67 38.872C1278.97 41.224 1280.12 44.248 1280.12 47.944V73H1268.46V51.328C1268.46 49.264 1267.88 47.608 1266.73 46.36C1265.63 45.064 1264.14 44.416 1262.27 44.416C1261.02 44.416 1259.87 44.68 1258.81 45.208C1257.8 45.688 1256.89 46.456 1256.08 47.512V73H1244.41ZM1315.48 73.576C1311.73 73.576 1308.66 72.544 1306.26 70.48C1303.86 68.368 1302.66 65.656 1302.66 62.344C1302.66 58.936 1303.93 56.296 1306.48 54.424C1309.02 52.504 1312.57 51.544 1317.13 51.544C1318.48 51.544 1319.84 51.688 1321.24 51.976C1322.63 52.216 1324.14 52.648 1325.77 53.272V50.248C1325.77 48.472 1325.15 47.128 1323.9 46.216C1322.7 45.304 1320.88 44.848 1318.43 44.848C1317.04 44.848 1315.48 45.064 1313.75 45.496C1312.07 45.88 1310.15 46.528 1307.99 47.44L1303.96 39.304C1306.98 37.96 1309.88 36.952 1312.67 36.28C1315.5 35.608 1318.28 35.272 1321.02 35.272C1326.16 35.272 1330.14 36.496 1332.97 38.944C1335.85 41.392 1337.29 44.824 1337.29 49.24V73H1325.77V69.76C1324.14 71.104 1322.51 72.088 1320.88 72.712C1319.24 73.288 1317.44 73.576 1315.48 73.576ZM1313.39 62.128C1313.39 63.328 1313.89 64.264 1314.9 64.936C1315.91 65.56 1317.3 65.872 1319.08 65.872C1320.28 65.872 1321.43 65.728 1322.53 65.44C1323.68 65.104 1324.76 64.624 1325.77 64V59.248C1324.72 59.008 1323.64 58.816 1322.53 58.672C1321.48 58.528 1320.42 58.456 1319.36 58.456C1317.44 58.456 1315.96 58.768 1314.9 59.392C1313.89 60.016 1313.39 60.928 1313.39 62.128ZM1346.08 73V35.848H1357.75V41.896C1359.19 39.736 1360.89 38.104 1362.86 37C1364.87 35.848 1367.08 35.272 1369.48 35.272C1373.08 35.272 1376.03 36.472 1378.34 38.872C1380.64 41.224 1381.79 44.248 1381.79 47.944V73H1370.13V51.328C1370.13 49.264 1369.55 47.608 1368.4 46.36C1367.3 45.064 1365.81 44.416 1363.94 44.416C1362.69 44.416 1361.54 44.68 1360.48 45.208C1359.47 45.688 1358.56 46.456 1357.75 47.512V73H1346.08ZM1416.29 73V68.176C1415.09 69.712 1413.51 70.936 1411.54 71.848C1409.62 72.76 1407.56 73.216 1405.35 73.216C1403.09 73.216 1400.96 72.736 1398.94 71.776C1396.93 70.768 1395.17 69.424 1393.69 67.744C1392.25 66.016 1391.09 64 1390.23 61.696C1389.37 59.392 1388.93 56.944 1388.93 54.352C1388.93 51.76 1389.37 49.336 1390.23 47.08C1391.14 44.776 1392.37 42.784 1393.9 41.104C1395.49 39.424 1397.33 38.104 1399.45 37.144C1401.56 36.136 1403.81 35.632 1406.21 35.632C1408.13 35.632 1409.96 36.016 1411.69 36.784C1413.41 37.552 1414.9 38.656 1416.15 40.096V21.52L1427.81 19.72V73H1416.29ZM1400.38 54.424C1400.38 57.016 1401.22 59.2 1402.9 60.976C1404.63 62.704 1406.74 63.568 1409.24 63.568C1410.63 63.568 1411.9 63.328 1413.05 62.848C1414.21 62.32 1415.24 61.576 1416.15 60.616V48.088C1415.24 47.176 1414.18 46.48 1412.98 46C1411.83 45.472 1410.58 45.208 1409.24 45.208C1406.69 45.208 1404.58 46.096 1402.9 47.872C1401.22 49.6 1400.38 51.784 1400.38 54.424ZM1449.3 69.184L1454.41 61.408C1457.05 62.8 1459.26 63.784 1461.04 64.36C1462.81 64.888 1464.59 65.152 1466.37 65.152C1468 65.152 1469.29 64.888 1470.25 64.36C1471.21 63.784 1471.69 63.04 1471.69 62.128C1471.69 61.408 1471.41 60.832 1470.83 60.4C1470.3 59.968 1469.44 59.656 1468.24 59.464L1461.11 58.168C1457.51 57.496 1454.77 56.248 1452.9 54.424C1451.08 52.6 1450.17 50.248 1450.17 47.368C1450.17 43.576 1451.53 40.6 1454.27 38.44C1457.05 36.28 1460.87 35.2 1465.72 35.2C1468.31 35.2 1470.88 35.56 1473.42 36.28C1475.97 37 1478.44 38.056 1480.84 39.448L1475.51 46.864C1473.64 45.808 1471.81 45.016 1470.04 44.488C1468.31 43.96 1466.58 43.696 1464.85 43.696C1463.46 43.696 1462.36 43.936 1461.54 44.416C1460.77 44.848 1460.39 45.472 1460.39 46.288C1460.39 47.056 1460.65 47.632 1461.18 48.016C1461.76 48.4 1462.77 48.712 1464.21 48.952L1471.19 50.248C1474.84 50.92 1477.62 52.192 1479.54 54.064C1481.46 55.888 1482.4 58.192 1482.35 60.976C1482.35 62.8 1481.94 64.504 1481.13 66.088C1480.36 67.624 1479.25 68.968 1477.81 70.12C1476.37 71.224 1474.67 72.112 1472.7 72.784C1470.73 73.408 1468.62 73.72 1466.37 73.72C1463.01 73.72 1459.86 73.336 1456.93 72.568C1454.01 71.8 1451.46 70.672 1449.3 69.184ZM1487.79 54.496C1487.79 51.76 1488.27 49.216 1489.23 46.864C1490.24 44.512 1491.61 42.496 1493.34 40.816C1495.07 39.088 1497.11 37.744 1499.46 36.784C1501.86 35.776 1504.43 35.272 1507.16 35.272C1509.9 35.272 1512.47 35.776 1514.87 36.784C1517.27 37.744 1519.33 39.088 1521.06 40.816C1522.79 42.496 1524.13 44.512 1525.09 46.864C1526.1 49.216 1526.6 51.76 1526.6 54.496C1526.6 57.232 1526.1 59.776 1525.09 62.128C1524.08 64.48 1522.71 66.52 1520.99 68.248C1519.26 69.928 1517.19 71.272 1514.79 72.28C1512.44 73.24 1509.9 73.72 1507.16 73.72C1504.43 73.72 1501.86 73.24 1499.46 72.28C1497.11 71.272 1495.07 69.904 1493.34 68.176C1491.61 66.448 1490.24 64.408 1489.23 62.056C1488.27 59.704 1487.79 57.184 1487.79 54.496ZM1507.16 63.856C1509.51 63.856 1511.43 62.992 1512.92 61.264C1514.46 59.488 1515.23 57.232 1515.23 54.496C1515.23 51.76 1514.46 49.504 1512.92 47.728C1511.43 45.904 1509.51 44.992 1507.16 44.992C1504.81 44.992 1502.89 45.904 1501.4 47.728C1499.91 49.504 1499.17 51.76 1499.17 54.496C1499.17 57.232 1499.91 59.488 1501.4 61.264C1502.89 62.992 1504.81 63.856 1507.16 63.856ZM1534.03 73V35.848H1545.69V41.752C1547.04 39.64 1548.64 38.032 1550.52 36.928C1552.39 35.824 1554.45 35.272 1556.71 35.272C1559.11 35.272 1561.22 35.896 1563.04 37.144C1564.87 38.392 1566.24 40.072 1567.15 42.184C1568.59 39.976 1570.34 38.272 1572.4 37.072C1574.47 35.872 1576.77 35.272 1579.32 35.272C1582.72 35.272 1585.51 36.496 1587.67 38.944C1589.88 41.392 1590.98 44.512 1590.98 48.304V73H1579.32V50.608C1579.32 48.736 1578.79 47.248 1577.73 46.144C1576.72 44.992 1575.4 44.416 1573.77 44.416C1572.72 44.416 1571.73 44.656 1570.82 45.136C1569.96 45.568 1569.14 46.288 1568.37 47.296V73H1556.71V50.608C1556.71 48.736 1556.18 47.248 1555.12 46.144C1554.12 44.992 1552.8 44.416 1551.16 44.416C1550.11 44.416 1549.12 44.656 1548.21 45.136C1547.3 45.616 1546.46 46.336 1545.69 47.296V73H1534.03ZM1633.32 67.744C1630.92 69.856 1628.5 71.392 1626.05 72.352C1623.6 73.264 1620.82 73.72 1617.7 73.72C1614.96 73.72 1612.39 73.24 1609.99 72.28C1607.64 71.272 1605.58 69.904 1603.8 68.176C1602.03 66.448 1600.63 64.408 1599.63 62.056C1598.62 59.704 1598.11 57.184 1598.11 54.496C1598.11 51.76 1598.59 49.216 1599.55 46.864C1600.51 44.512 1601.81 42.472 1603.44 40.744C1605.12 39.016 1607.11 37.672 1609.42 36.712C1611.72 35.704 1614.19 35.2 1616.83 35.2C1619.52 35.2 1621.97 35.704 1624.18 36.712C1626.43 37.672 1628.35 39.016 1629.94 40.744C1631.57 42.472 1632.84 44.56 1633.75 47.008C1634.67 49.408 1635.12 52.048 1635.12 54.928V57.448H1609.56C1610.09 59.512 1611.15 61.192 1612.73 62.488C1614.31 63.784 1616.16 64.432 1618.27 64.432C1619.81 64.432 1621.2 64.168 1622.45 63.64C1623.75 63.112 1624.8 62.344 1625.62 61.336L1633.32 67.744ZM1616.76 44.272C1614.94 44.272 1613.4 44.848 1612.15 46C1610.91 47.152 1610.04 48.76 1609.56 50.824H1624.32C1623.84 48.808 1622.93 47.224 1621.59 46.072C1620.24 44.872 1618.63 44.272 1616.76 44.272ZM1646.22 61.552V44.848H1639.02V35.848H1646.22V25.552L1657.89 23.176V35.848H1667.82V44.848H1657.89V59.248C1657.89 60.88 1658.25 62.032 1658.97 62.704C1659.73 63.376 1661.01 63.712 1662.78 63.712C1663.45 63.712 1664.13 63.664 1664.8 63.568C1665.47 63.472 1666.38 63.256 1667.53 62.92V72.352C1666.48 72.688 1665.18 72.952 1663.65 73.144C1662.11 73.384 1660.74 73.504 1659.54 73.504C1655.17 73.504 1651.86 72.496 1649.61 70.48C1647.35 68.464 1646.22 65.488 1646.22 61.552ZM1674.3 73V21.52L1685.97 19.72V41.896C1687.41 39.736 1689.11 38.104 1691.08 37C1693.09 35.848 1695.3 35.272 1697.7 35.272C1701.3 35.272 1704.25 36.472 1706.56 38.872C1708.86 41.224 1710.01 44.248 1710.01 47.944V73H1698.35V51.328C1698.35 49.264 1697.77 47.608 1696.62 46.36C1695.52 45.064 1694.03 44.416 1692.16 44.416C1690.91 44.416 1689.76 44.68 1688.7 45.208C1687.69 45.688 1686.78 46.456 1685.97 47.512V73H1674.3ZM1724.64 30.088C1722.82 30.088 1721.26 29.464 1719.96 28.216C1718.71 26.92 1718.09 25.384 1718.09 23.608C1718.09 21.832 1718.74 20.296 1720.03 19C1721.33 17.704 1722.87 17.056 1724.64 17.056C1726.42 17.056 1727.95 17.704 1729.25 19C1730.59 20.296 1731.27 21.832 1731.27 23.608C1731.27 25.384 1730.62 26.92 1729.32 28.216C1728.07 29.464 1726.51 30.088 1724.64 30.088ZM1730.47 35.848V73H1718.81V35.848H1730.47ZM1739.55 73V35.848H1751.22V41.896C1752.66 39.736 1754.36 38.104 1756.33 37C1758.34 35.848 1760.55 35.272 1762.95 35.272C1766.55 35.272 1769.5 36.472 1771.81 38.872C1774.11 41.224 1775.26 44.248 1775.26 47.944V73H1763.6V51.328C1763.6 49.264 1763.02 47.608 1761.87 46.36C1760.77 45.064 1759.28 44.416 1757.41 44.416C1756.16 44.416 1755.01 44.68 1753.95 45.208C1752.94 45.688 1752.03 46.456 1751.22 47.512V73H1739.55ZM1798.82 72.928C1796.56 72.928 1794.43 72.448 1792.41 71.488C1790.4 70.48 1788.64 69.136 1787.16 67.456C1785.72 65.776 1784.56 63.808 1783.7 61.552C1782.84 59.248 1782.4 56.8 1782.4 54.208C1782.4 51.616 1782.84 49.192 1783.7 46.936C1784.61 44.68 1785.84 42.712 1787.37 41.032C1788.96 39.352 1790.8 38.032 1792.92 37.072C1795.03 36.112 1797.28 35.632 1799.68 35.632C1801.65 35.632 1803.5 36.04 1805.23 36.856C1807 37.672 1808.52 38.824 1809.76 40.312V35.848H1821.21V73.504C1821.21 78.496 1819.51 82.336 1816.1 85.024C1812.74 87.712 1807.92 89.056 1801.63 89.056C1798.84 89.056 1796.13 88.768 1793.49 88.192C1790.85 87.616 1788.43 86.8 1786.22 85.744L1789.82 77.32C1791.88 78.28 1793.85 79 1795.72 79.48C1797.6 79.96 1799.42 80.2 1801.2 80.2C1803.93 80.2 1806.02 79.624 1807.46 78.472C1808.9 77.32 1809.62 75.616 1809.62 73.36V68.032C1808.42 69.52 1806.86 70.72 1804.94 71.632C1803.02 72.496 1800.98 72.928 1798.82 72.928ZM1793.85 54.28C1793.85 56.872 1794.69 59.056 1796.37 60.832C1798.1 62.56 1800.21 63.424 1802.71 63.424C1804.1 63.424 1805.37 63.184 1806.52 62.704C1807.68 62.176 1808.71 61.432 1809.62 60.472V48.088C1808.71 47.176 1807.65 46.48 1806.45 46C1805.3 45.472 1804.05 45.208 1802.71 45.208C1800.16 45.208 1798.05 46.072 1796.37 47.8C1794.69 49.528 1793.85 51.688 1793.85 54.28ZM1842.7 69.184L1847.81 61.408C1850.45 62.8 1852.66 63.784 1854.44 64.36C1856.21 64.888 1857.99 65.152 1859.76 65.152C1861.4 65.152 1862.69 64.888 1863.65 64.36C1864.61 63.784 1865.09 63.04 1865.09 62.128C1865.09 61.408 1864.8 60.832 1864.23 60.4C1863.7 59.968 1862.84 59.656 1861.64 59.464L1854.51 58.168C1850.91 57.496 1848.17 56.248 1846.3 54.424C1844.48 52.6 1843.56 50.248 1843.56 47.368C1843.56 43.576 1844.93 40.6 1847.67 38.44C1850.45 36.28 1854.27 35.2 1859.12 35.2C1861.71 35.2 1864.28 35.56 1866.82 36.28C1869.36 37 1871.84 38.056 1874.24 39.448L1868.91 46.864C1867.04 45.808 1865.21 45.016 1863.44 44.488C1861.71 43.96 1859.98 43.696 1858.25 43.696C1856.86 43.696 1855.76 43.936 1854.94 44.416C1854.17 44.848 1853.79 45.472 1853.79 46.288C1853.79 47.056 1854.05 47.632 1854.58 48.016C1855.16 48.4 1856.16 48.712 1857.6 48.952L1864.59 50.248C1868.24 50.92 1871.02 52.192 1872.94 54.064C1874.86 55.888 1875.8 58.192 1875.75 60.976C1875.75 62.8 1875.34 64.504 1874.52 66.088C1873.76 67.624 1872.65 68.968 1871.21 70.12C1869.77 71.224 1868.07 72.112 1866.1 72.784C1864.13 73.408 1862.02 73.72 1859.76 73.72C1856.4 73.72 1853.26 73.336 1850.33 72.568C1847.4 71.8 1844.86 70.672 1842.7 69.184ZM1886.69 61.552V44.848H1879.49V35.848H1886.69V25.552L1898.35 23.176V35.848H1908.29V44.848H1898.35V59.248C1898.35 60.88 1898.71 62.032 1899.43 62.704C1900.2 63.376 1901.47 63.712 1903.25 63.712C1903.92 63.712 1904.59 63.664 1905.27 63.568C1905.94 63.472 1906.85 63.256 1908 62.92V72.352C1906.95 72.688 1905.65 72.952 1904.11 73.144C1902.58 73.384 1901.21 73.504 1900.01 73.504C1895.64 73.504 1892.33 72.496 1890.07 70.48C1887.82 68.464 1886.69 65.488 1886.69 61.552ZM1914.77 73V35.848H1926.43V44.272C1927.63 41.2 1929.05 38.92 1930.68 37.432C1932.36 35.896 1934.31 35.128 1936.51 35.128C1937.33 35.176 1938 35.272 1938.53 35.416C1939.06 35.512 1939.68 35.728 1940.4 36.064V46.072C1939.68 45.736 1938.84 45.472 1937.88 45.28C1936.92 45.04 1935.94 44.92 1934.93 44.92C1933.2 44.92 1931.57 45.352 1930.03 46.216C1928.55 47.032 1927.35 48.136 1926.43 49.528V73H1914.77ZM1979.12 67.744C1976.72 69.856 1974.3 71.392 1971.85 72.352C1969.4 73.264 1966.62 73.72 1963.5 73.72C1960.76 73.72 1958.19 73.24 1955.79 72.28C1953.44 71.272 1951.38 69.904 1949.6 68.176C1947.82 66.448 1946.43 64.408 1945.42 62.056C1944.42 59.704 1943.91 57.184 1943.91 54.496C1943.91 51.76 1944.39 49.216 1945.35 46.864C1946.31 44.512 1947.61 42.472 1949.24 40.744C1950.92 39.016 1952.91 37.672 1955.22 36.712C1957.52 35.704 1959.99 35.2 1962.63 35.2C1965.32 35.2 1967.77 35.704 1969.98 36.712C1972.23 37.672 1974.15 39.016 1975.74 40.744C1977.37 42.472 1978.64 44.56 1979.55 47.008C1980.46 49.408 1980.92 52.048 1980.92 54.928V57.448H1955.36C1955.89 59.512 1956.94 61.192 1958.53 62.488C1960.11 63.784 1961.96 64.432 1964.07 64.432C1965.61 64.432 1967 64.168 1968.25 63.64C1969.54 63.112 1970.6 62.344 1971.42 61.336L1979.12 67.744ZM1962.56 44.272C1960.74 44.272 1959.2 44.848 1957.95 46C1956.7 47.152 1955.84 48.76 1955.36 50.824H1970.12C1969.64 48.808 1968.73 47.224 1967.38 46.072C1966.04 44.872 1964.43 44.272 1962.56 44.272ZM2022.08 67.744C2019.68 69.856 2017.26 71.392 2014.81 72.352C2012.36 73.264 2009.58 73.72 2006.46 73.72C2003.72 73.72 2001.15 73.24 1998.75 72.28C1996.4 71.272 1994.34 69.904 1992.56 68.176C1990.78 66.448 1989.39 64.408 1988.38 62.056C1987.38 59.704 1986.87 57.184 1986.87 54.496C1986.87 51.76 1987.35 49.216 1988.31 46.864C1989.27 44.512 1990.57 42.472 1992.2 40.744C1993.88 39.016 1995.87 37.672 1998.18 36.712C2000.48 35.704 2002.95 35.2 2005.59 35.2C2008.28 35.2 2010.73 35.704 2012.94 36.712C2015.19 37.672 2017.11 39.016 2018.7 40.744C2020.33 42.472 2021.6 44.56 2022.51 47.008C2023.42 49.408 2023.88 52.048 2023.88 54.928V57.448H1998.32C1998.85 59.512 1999.9 61.192 2001.49 62.488C2003.07 63.784 2004.92 64.432 2007.03 64.432C2008.57 64.432 2009.96 64.168 2011.21 63.64C2012.5 63.112 2013.56 62.344 2014.38 61.336L2022.08 67.744ZM2005.52 44.272C2003.7 44.272 2002.16 44.848 2000.91 46C1999.66 47.152 1998.8 48.76 1998.32 50.824H2013.08C2012.6 48.808 2011.69 47.224 2010.34 46.072C2009 44.872 2007.39 44.272 2005.52 44.272ZM2034.98 61.552V44.848H2027.78V35.848H2034.98V25.552L2046.64 23.176V35.848H2056.58V44.848H2046.64V59.248C2046.64 60.88 2047 62.032 2047.72 62.704C2048.49 63.376 2049.76 63.712 2051.54 63.712C2052.21 63.712 2052.88 63.664 2053.55 63.568C2054.23 63.472 2055.14 63.256 2056.29 62.92V72.352C2055.23 72.688 2053.94 72.952 2052.4 73.144C2050.87 73.384 2049.5 73.504 2048.3 73.504C2043.93 73.504 2040.62 72.496 2038.36 70.48C2036.11 68.464 2034.98 65.488 2034.98 61.552Z" fill="#310F0F"/>
<path d="M1168.34 191.664V188.4H1195.22V191.664H1183.66V222H1179.96V191.664H1168.34ZM1200.85 222V188.4H1204.55V203.424H1223.84V188.4H1227.54V222H1223.84V206.736H1204.55V222H1200.85ZM1237.11 192.816C1236.41 192.816 1235.8 192.576 1235.29 192.096C1234.81 191.584 1234.57 190.976 1234.57 190.272C1234.57 189.6 1234.81 189.024 1235.29 188.544C1235.8 188.032 1236.41 187.776 1237.11 187.776C1237.78 187.776 1238.36 188.032 1238.84 188.544C1239.35 189.024 1239.61 189.6 1239.61 190.272C1239.61 190.976 1239.37 191.584 1238.89 192.096C1238.41 192.576 1237.81 192.816 1237.11 192.816ZM1238.84 198.576V222H1235.33V198.576H1238.84ZM1243.77 218.976L1245.64 216.672C1247.01 217.696 1248.29 218.448 1249.48 218.928C1250.69 219.376 1251.93 219.6 1253.17 219.6C1254.87 219.6 1256.28 219.2 1257.4 218.4C1258.52 217.6 1259.08 216.592 1259.08 215.376C1259.08 214.416 1258.74 213.664 1258.07 213.12C1257.4 212.576 1256.33 212.16 1254.85 211.872L1251.01 211.2C1248.74 210.784 1247.06 210.08 1245.97 209.088C1244.92 208.096 1244.39 206.752 1244.39 205.056C1244.39 203.04 1245.17 201.392 1246.74 200.112C1248.34 198.832 1250.37 198.192 1252.84 198.192C1254.44 198.192 1255.96 198.432 1257.4 198.912C1258.84 199.392 1260.29 200.128 1261.77 201.12L1260.04 203.568C1258.82 202.704 1257.61 202.08 1256.39 201.696C1255.17 201.28 1253.94 201.072 1252.69 201.072C1251.16 201.072 1249.93 201.408 1249 202.08C1248.07 202.752 1247.61 203.664 1247.61 204.816C1247.61 205.776 1247.89 206.512 1248.47 207.024C1249.08 207.536 1250.13 207.92 1251.64 208.176L1255.57 208.896C1257.91 209.312 1259.62 210.032 1260.71 211.056C1261.83 212.08 1262.39 213.456 1262.39 215.184C1262.39 217.2 1261.51 218.912 1259.75 220.32C1258.02 221.728 1255.86 222.432 1253.27 222.432C1251.35 222.432 1249.57 222.144 1247.94 221.568C1246.31 220.96 1244.92 220.096 1243.77 218.976ZM1280.7 192.816C1280 192.816 1279.39 192.576 1278.88 192.096C1278.4 191.584 1278.16 190.976 1278.16 190.272C1278.16 189.6 1278.4 189.024 1278.88 188.544C1279.39 188.032 1280 187.776 1280.7 187.776C1281.38 187.776 1281.95 188.032 1282.43 188.544C1282.94 189.024 1283.2 189.6 1283.2 190.272C1283.2 190.976 1282.96 191.584 1282.48 192.096C1282 192.576 1281.41 192.816 1280.7 192.816ZM1282.43 198.576V222H1278.93V198.576H1282.43ZM1287.36 218.976L1289.23 216.672C1290.61 217.696 1291.89 218.448 1293.07 218.928C1294.29 219.376 1295.52 219.6 1296.77 219.6C1298.46 219.6 1299.87 219.2 1300.99 218.4C1302.11 217.6 1302.67 216.592 1302.67 215.376C1302.67 214.416 1302.34 213.664 1301.66 213.12C1300.99 212.576 1299.92 212.16 1298.45 211.872L1294.61 211.2C1292.34 210.784 1290.66 210.08 1289.57 209.088C1288.51 208.096 1287.98 206.752 1287.98 205.056C1287.98 203.04 1288.77 201.392 1290.34 200.112C1291.94 198.832 1293.97 198.192 1296.43 198.192C1298.03 198.192 1299.55 198.432 1300.99 198.912C1302.43 199.392 1303.89 200.128 1305.36 201.12L1303.63 203.568C1302.42 202.704 1301.2 202.08 1299.98 201.696C1298.77 201.28 1297.54 201.072 1296.29 201.072C1294.75 201.072 1293.52 201.408 1292.59 202.08C1291.66 202.752 1291.2 203.664 1291.2 204.816C1291.2 205.776 1291.49 206.512 1292.06 207.024C1292.67 207.536 1293.73 207.92 1295.23 208.176L1299.17 208.896C1301.5 209.312 1303.22 210.032 1304.3 211.056C1305.42 212.08 1305.98 213.456 1305.98 215.184C1305.98 217.2 1305.1 218.912 1303.34 220.32C1301.62 221.728 1299.46 222.432 1296.86 222.432C1294.94 222.432 1293.17 222.144 1291.54 221.568C1289.9 220.96 1288.51 220.096 1287.36 218.976ZM1329.77 222.432C1327.27 222.432 1325.23 221.776 1323.63 220.464C1322.06 219.12 1321.27 217.392 1321.27 215.28C1321.27 213.2 1322.07 211.52 1323.67 210.24C1325.31 208.96 1327.43 208.32 1330.06 208.32C1331.4 208.32 1332.67 208.48 1333.85 208.8C1335.07 209.088 1336.19 209.536 1337.21 210.144V206.928C1337.21 205.008 1336.7 203.568 1335.67 202.608C1334.65 201.616 1333.15 201.12 1331.16 201.12C1330.07 201.12 1328.95 201.28 1327.8 201.6C1326.68 201.92 1325.43 202.432 1324.06 203.136L1322.76 200.448C1324.36 199.68 1325.88 199.12 1327.32 198.768C1328.76 198.384 1330.19 198.192 1331.59 198.192C1334.47 198.192 1336.7 198.912 1338.27 200.352C1339.87 201.76 1340.67 203.792 1340.67 206.448V222H1337.21V219.264C1336.19 220.32 1335.05 221.12 1333.8 221.664C1332.55 222.176 1331.21 222.432 1329.77 222.432ZM1324.63 215.184C1324.63 216.56 1325.18 217.664 1326.27 218.496C1327.35 219.328 1328.76 219.744 1330.49 219.744C1331.8 219.744 1333 219.52 1334.09 219.072C1335.21 218.624 1336.25 217.952 1337.21 217.056V212.544C1336.22 211.968 1335.19 211.552 1334.14 211.296C1333.08 211.008 1331.9 210.864 1330.59 210.864C1328.79 210.864 1327.35 211.264 1326.27 212.064C1325.18 212.864 1324.63 213.904 1324.63 215.184ZM1356.73 218.976L1358.61 216.672C1359.98 217.696 1361.26 218.448 1362.45 218.928C1363.66 219.376 1364.89 219.6 1366.14 219.6C1367.84 219.6 1369.25 219.2 1370.37 218.4C1371.49 217.6 1372.05 216.592 1372.05 215.376C1372.05 214.416 1371.71 213.664 1371.04 213.12C1370.37 212.576 1369.29 212.16 1367.82 211.872L1363.98 211.2C1361.71 210.784 1360.03 210.08 1358.94 209.088C1357.89 208.096 1357.36 206.752 1357.36 205.056C1357.36 203.04 1358.14 201.392 1359.71 200.112C1361.31 198.832 1363.34 198.192 1365.81 198.192C1367.41 198.192 1368.93 198.432 1370.37 198.912C1371.81 199.392 1373.26 200.128 1374.73 201.12L1373.01 203.568C1371.79 202.704 1370.57 202.08 1369.36 201.696C1368.14 201.28 1366.91 201.072 1365.66 201.072C1364.13 201.072 1362.89 201.408 1361.97 202.08C1361.04 202.752 1360.57 203.664 1360.57 204.816C1360.57 205.776 1360.86 206.512 1361.44 207.024C1362.05 207.536 1363.1 207.92 1364.61 208.176L1368.54 208.896C1370.88 209.312 1372.59 210.032 1373.68 211.056C1374.8 212.08 1375.36 213.456 1375.36 215.184C1375.36 217.2 1374.48 218.912 1372.72 220.32C1370.99 221.728 1368.83 222.432 1366.24 222.432C1364.32 222.432 1362.54 222.144 1360.91 221.568C1359.28 220.96 1357.89 220.096 1356.73 218.976ZM1384.1 198.576V212.688C1384.1 214.768 1384.66 216.416 1385.78 217.632C1386.9 218.848 1388.42 219.456 1390.34 219.456C1391.62 219.456 1392.79 219.152 1393.85 218.544C1394.9 217.936 1395.78 217.056 1396.49 215.904V198.576H1399.99V222H1396.49V218.208C1395.59 219.584 1394.52 220.624 1393.27 221.328C1392.02 222.032 1390.61 222.384 1389.05 222.384C1386.55 222.384 1384.5 221.584 1382.9 219.984C1381.33 218.352 1380.55 216.256 1380.55 213.696V198.576H1384.1ZM1407.18 232.032V198.576H1410.63V201.936C1411.53 200.752 1412.62 199.856 1413.9 199.248C1415.21 198.608 1416.65 198.288 1418.22 198.288C1419.72 198.288 1421.13 198.608 1422.44 199.248C1423.79 199.856 1424.94 200.704 1425.9 201.792C1426.86 202.848 1427.61 204.112 1428.15 205.584C1428.73 207.056 1429.02 208.624 1429.02 210.288C1429.02 211.984 1428.73 213.568 1428.15 215.04C1427.61 216.512 1426.84 217.792 1425.85 218.88C1424.86 219.936 1423.69 220.784 1422.35 221.424C1421 222.032 1419.56 222.336 1418.03 222.336C1416.55 222.336 1415.18 222.064 1413.9 221.52C1412.65 220.944 1411.58 220.128 1410.68 219.072V232.032H1407.18ZM1417.35 201.36C1415.98 201.36 1414.7 201.648 1413.51 202.224C1412.36 202.768 1411.42 203.552 1410.68 204.576V216.048C1411.45 217.072 1412.41 217.872 1413.56 218.448C1414.75 219.024 1416.01 219.312 1417.35 219.312C1419.69 219.312 1421.64 218.464 1423.21 216.768C1424.78 215.04 1425.56 212.896 1425.56 210.336C1425.56 207.776 1424.78 205.648 1423.21 203.952C1421.64 202.224 1419.69 201.36 1417.35 201.36ZM1454.55 219.312C1453.21 220.368 1451.82 221.152 1450.38 221.664C1448.94 222.176 1447.4 222.432 1445.77 222.432C1444.14 222.432 1442.6 222.128 1441.16 221.52C1439.75 220.88 1438.52 220.016 1437.47 218.928C1436.44 217.84 1435.63 216.56 1435.02 215.088C1434.44 213.584 1434.15 211.984 1434.15 210.288C1434.15 208.592 1434.43 207.008 1434.97 205.536C1435.55 204.032 1436.33 202.752 1437.32 201.696C1438.31 200.608 1439.48 199.76 1440.83 199.152C1442.17 198.512 1443.63 198.192 1445.19 198.192C1446.73 198.192 1448.15 198.496 1449.47 199.104C1450.78 199.712 1451.91 200.544 1452.87 201.6C1453.83 202.624 1454.59 203.872 1455.13 205.344C1455.67 206.784 1455.95 208.336 1455.95 210V211.056H1437.56C1437.72 213.424 1438.6 215.408 1440.2 217.008C1441.8 218.576 1443.71 219.36 1445.91 219.36C1447.13 219.36 1448.3 219.152 1449.42 218.736C1450.57 218.288 1451.55 217.696 1452.35 216.96L1454.55 219.312ZM1445.15 201.216C1443.23 201.216 1441.58 201.904 1440.2 203.28C1438.83 204.656 1437.98 206.416 1437.66 208.56H1452.49C1452.23 206.448 1451.42 204.704 1450.04 203.328C1448.7 201.92 1447.07 201.216 1445.15 201.216ZM1461.93 222V198.576H1465.43V203.328C1466.04 201.696 1466.9 200.432 1468.02 199.536C1469.18 198.608 1470.49 198.144 1471.96 198.144C1472.38 198.144 1472.76 198.176 1473.11 198.24C1473.46 198.272 1473.82 198.352 1474.17 198.48V201.648C1473.78 201.52 1473.37 201.424 1472.92 201.36C1472.5 201.264 1472.1 201.216 1471.72 201.216C1470.28 201.216 1469.02 201.632 1467.93 202.464C1466.87 203.296 1466.04 204.464 1465.43 205.968V222H1461.93ZM1478.8 222V198.576H1482.31V202.224C1483.2 200.88 1484.23 199.872 1485.38 199.2C1486.53 198.528 1487.83 198.192 1489.27 198.192C1490.9 198.192 1492.34 198.608 1493.59 199.44C1494.87 200.272 1495.83 201.376 1496.47 202.752C1497.36 201.248 1498.47 200.112 1499.78 199.344C1501.09 198.576 1502.6 198.192 1504.29 198.192C1506.63 198.192 1508.53 199.008 1510 200.64C1511.51 202.24 1512.26 204.32 1512.26 206.88V222H1508.76V207.744C1508.76 205.728 1508.23 204.128 1507.17 202.944C1506.15 201.728 1504.76 201.12 1503 201.12C1501.78 201.12 1500.68 201.424 1499.68 202.032C1498.69 202.64 1497.84 203.568 1497.14 204.816C1497.2 205.136 1497.25 205.472 1497.28 205.824C1497.32 206.176 1497.33 206.528 1497.33 206.88V222H1493.83V207.744C1493.83 205.728 1493.3 204.128 1492.24 202.944C1491.19 201.728 1489.78 201.12 1488.02 201.12C1486.84 201.12 1485.76 201.408 1484.8 201.984C1483.84 202.56 1483.01 203.424 1482.31 204.576V222H1478.8ZM1526.6 222.432C1524.1 222.432 1522.05 221.776 1520.45 220.464C1518.89 219.12 1518.1 217.392 1518.1 215.28C1518.1 213.2 1518.9 211.52 1520.5 210.24C1522.13 208.96 1524.26 208.32 1526.89 208.32C1528.23 208.32 1529.49 208.48 1530.68 208.8C1531.89 209.088 1533.01 209.536 1534.04 210.144V206.928C1534.04 205.008 1533.53 203.568 1532.5 202.608C1531.48 201.616 1529.97 201.12 1527.99 201.12C1526.9 201.12 1525.78 201.28 1524.63 201.6C1523.51 201.92 1522.26 202.432 1520.89 203.136L1519.59 200.448C1521.19 199.68 1522.71 199.12 1524.15 198.768C1525.59 198.384 1527.01 198.192 1528.42 198.192C1531.3 198.192 1533.53 198.912 1535.09 200.352C1536.69 201.76 1537.49 203.792 1537.49 206.448V222H1534.04V219.264C1533.01 220.32 1531.88 221.12 1530.63 221.664C1529.38 222.176 1528.04 222.432 1526.6 222.432ZM1521.46 215.184C1521.46 216.56 1522.01 217.664 1523.09 218.496C1524.18 219.328 1525.59 219.744 1527.32 219.744C1528.63 219.744 1529.83 219.52 1530.92 219.072C1532.04 218.624 1533.08 217.952 1534.04 217.056V212.544C1533.05 211.968 1532.02 211.552 1530.97 211.296C1529.91 211.008 1528.73 210.864 1527.41 210.864C1525.62 210.864 1524.18 211.264 1523.09 212.064C1522.01 212.864 1521.46 213.904 1521.46 215.184ZM1544.62 222V198.576H1548.12V203.328C1548.73 201.696 1549.59 200.432 1550.71 199.536C1551.86 198.608 1553.18 198.144 1554.65 198.144C1555.06 198.144 1555.45 198.176 1555.8 198.24C1556.15 198.272 1556.5 198.352 1556.86 198.48V201.648C1556.47 201.52 1556.06 201.424 1555.61 201.36C1555.19 201.264 1554.79 201.216 1554.41 201.216C1552.97 201.216 1551.7 201.632 1550.62 202.464C1549.56 203.296 1548.73 204.464 1548.12 205.968V222H1544.62ZM1561.49 222V187.68L1564.99 186.96V209.088L1576.13 198.576H1580.35L1568.45 209.712L1580.88 222H1576.27L1564.99 210.816V222H1561.49ZM1602.82 219.312C1601.48 220.368 1600.08 221.152 1598.64 221.664C1597.2 222.176 1595.67 222.432 1594.04 222.432C1592.4 222.432 1590.87 222.128 1589.43 221.52C1588.02 220.88 1586.79 220.016 1585.73 218.928C1584.71 217.84 1583.89 216.56 1583.28 215.088C1582.71 213.584 1582.42 211.984 1582.42 210.288C1582.42 208.592 1582.69 207.008 1583.24 205.536C1583.81 204.032 1584.6 202.752 1585.59 201.696C1586.58 200.608 1587.75 199.76 1589.09 199.152C1590.44 198.512 1591.89 198.192 1593.46 198.192C1595 198.192 1596.42 198.496 1597.73 199.104C1599.04 199.712 1600.18 200.544 1601.14 201.6C1602.1 202.624 1602.85 203.872 1603.4 205.344C1603.94 206.784 1604.21 208.336 1604.21 210V211.056H1585.83C1585.99 213.424 1586.87 215.408 1588.47 217.008C1590.07 218.576 1591.97 219.36 1594.18 219.36C1595.4 219.36 1596.56 219.152 1597.68 218.736C1598.84 218.288 1599.81 217.696 1600.61 216.96L1602.82 219.312ZM1593.41 201.216C1591.49 201.216 1589.84 201.904 1588.47 203.28C1587.09 204.656 1586.24 206.416 1585.92 208.56H1600.76C1600.5 206.448 1599.68 204.704 1598.31 203.328C1596.96 201.92 1595.33 201.216 1593.41 201.216ZM1612.27 216.72V201.456H1607.43V198.576H1612.27V192.144L1615.78 191.328V198.576H1622.5V201.456H1615.78V215.808C1615.78 217.056 1616.03 217.952 1616.55 218.496C1617.09 219.04 1617.97 219.312 1619.19 219.312C1619.79 219.312 1620.34 219.264 1620.82 219.168C1621.3 219.072 1621.86 218.912 1622.5 218.688V221.808C1621.86 222.032 1621.19 222.192 1620.48 222.288C1619.78 222.384 1619.09 222.432 1618.42 222.432C1616.4 222.432 1614.87 221.952 1613.81 220.992C1612.79 220 1612.27 218.576 1612.27 216.72ZM1660.67 210.288C1660.67 211.984 1660.39 213.568 1659.81 215.04C1659.27 216.512 1658.5 217.792 1657.51 218.88C1656.51 219.936 1655.35 220.784 1654 221.424C1652.66 222.032 1651.22 222.336 1649.68 222.336C1648.21 222.336 1646.83 222.048 1645.55 221.472C1644.31 220.864 1643.22 220.016 1642.29 218.928V222H1638.83V187.68L1642.34 186.96V201.792C1643.23 200.704 1644.32 199.856 1645.6 199.248C1646.88 198.608 1648.31 198.288 1649.87 198.288C1651.38 198.288 1652.79 198.608 1654.1 199.248C1655.44 199.856 1656.59 200.704 1657.55 201.792C1658.51 202.848 1659.27 204.112 1659.81 205.584C1660.39 207.056 1660.67 208.624 1660.67 210.288ZM1649.01 201.36C1647.63 201.36 1646.35 201.648 1645.17 202.224C1644.02 202.768 1643.07 203.552 1642.34 204.576V216.048C1643.11 217.072 1644.07 217.872 1645.22 218.448C1646.4 219.024 1647.67 219.312 1649.01 219.312C1651.35 219.312 1653.3 218.464 1654.87 216.768C1656.43 215.04 1657.22 212.896 1657.22 210.336C1657.22 207.776 1656.43 205.648 1654.87 203.952C1653.3 202.224 1651.35 201.36 1649.01 201.36ZM1670.32 186.96V222H1666.82V187.68L1670.32 186.96ZM1684.75 222.432C1682.26 222.432 1680.21 221.776 1678.61 220.464C1677.04 219.12 1676.26 217.392 1676.26 215.28C1676.26 213.2 1677.06 211.52 1678.66 210.24C1680.29 208.96 1682.42 208.32 1685.04 208.32C1686.39 208.32 1687.65 208.48 1688.83 208.8C1690.05 209.088 1691.17 209.536 1692.19 210.144V206.928C1692.19 205.008 1691.68 203.568 1690.66 202.608C1689.63 201.616 1688.13 201.12 1686.15 201.12C1685.06 201.12 1683.94 201.28 1682.79 201.6C1681.67 201.92 1680.42 202.432 1679.04 203.136L1677.75 200.448C1679.35 199.68 1680.87 199.12 1682.31 198.768C1683.75 198.384 1685.17 198.192 1686.58 198.192C1689.46 198.192 1691.68 198.912 1693.25 200.352C1694.85 201.76 1695.65 203.792 1695.65 206.448V222H1692.19V219.264C1691.17 220.32 1690.03 221.12 1688.79 221.664C1687.54 222.176 1686.19 222.432 1684.75 222.432ZM1679.62 215.184C1679.62 216.56 1680.16 217.664 1681.25 218.496C1682.34 219.328 1683.75 219.744 1685.47 219.744C1686.79 219.744 1687.99 219.52 1689.07 219.072C1690.19 218.624 1691.23 217.952 1692.19 217.056V212.544C1691.2 211.968 1690.18 211.552 1689.12 211.296C1688.07 211.008 1686.88 210.864 1685.57 210.864C1683.78 210.864 1682.34 211.264 1681.25 212.064C1680.16 212.864 1679.62 213.904 1679.62 215.184ZM1702.77 222V187.68L1706.28 186.96V202.368C1707.17 200.992 1708.24 199.952 1709.49 199.248C1710.74 198.544 1712.15 198.192 1713.72 198.192C1716.21 198.192 1718.24 198.992 1719.81 200.592C1721.41 202.192 1722.21 204.272 1722.21 206.832V222H1718.71V207.84C1718.71 205.792 1718.13 204.16 1716.98 202.944C1715.86 201.728 1714.34 201.12 1712.42 201.12C1711.14 201.12 1709.97 201.424 1708.92 202.032C1707.86 202.64 1706.98 203.536 1706.28 204.72V222H1702.77ZM1192.44 274.288C1192.44 275.984 1192.15 277.568 1191.58 279.04C1191.03 280.512 1190.26 281.792 1189.27 282.88C1188.28 283.936 1187.11 284.784 1185.77 285.424C1184.42 286.032 1182.98 286.336 1181.45 286.336C1179.98 286.336 1178.6 286.048 1177.32 285.472C1176.07 284.864 1174.98 284.016 1174.06 282.928V286H1170.6V251.68L1174.1 250.96V265.792C1175 264.704 1176.09 263.856 1177.37 263.248C1178.65 262.608 1180.07 262.288 1181.64 262.288C1183.14 262.288 1184.55 262.608 1185.86 263.248C1187.21 263.856 1188.36 264.704 1189.32 265.792C1190.28 266.848 1191.03 268.112 1191.58 269.584C1192.15 271.056 1192.44 272.624 1192.44 274.288ZM1180.78 265.36C1179.4 265.36 1178.12 265.648 1176.94 266.224C1175.78 266.768 1174.84 267.552 1174.1 268.576V280.048C1174.87 281.072 1175.83 281.872 1176.98 282.448C1178.17 283.024 1179.43 283.312 1180.78 283.312C1183.11 283.312 1185.06 282.464 1186.63 280.768C1188.2 279.04 1188.98 276.896 1188.98 274.336C1188.98 271.776 1188.2 269.648 1186.63 267.952C1185.06 266.224 1183.11 265.36 1180.78 265.36ZM1202.09 250.96V286H1198.58V251.68L1202.09 250.96ZM1216.52 286.432C1214.02 286.432 1211.98 285.776 1210.38 284.464C1208.81 283.12 1208.02 281.392 1208.02 279.28C1208.02 277.2 1208.82 275.52 1210.42 274.24C1212.06 272.96 1214.18 272.32 1216.81 272.32C1218.15 272.32 1219.42 272.48 1220.6 272.8C1221.82 273.088 1222.94 273.536 1223.96 274.144V270.928C1223.96 269.008 1223.45 267.568 1222.42 266.608C1221.4 265.616 1219.9 265.12 1217.91 265.12C1216.82 265.12 1215.7 265.28 1214.55 265.6C1213.43 265.92 1212.18 266.432 1210.81 267.136L1209.51 264.448C1211.11 263.68 1212.63 263.12 1214.07 262.768C1215.51 262.384 1216.94 262.192 1218.34 262.192C1221.22 262.192 1223.45 262.912 1225.02 264.352C1226.62 265.76 1227.42 267.792 1227.42 270.448V286H1223.96V283.264C1222.94 284.32 1221.8 285.12 1220.55 285.664C1219.3 286.176 1217.96 286.432 1216.52 286.432ZM1211.38 279.184C1211.38 280.56 1211.93 281.664 1213.02 282.496C1214.1 283.328 1215.51 283.744 1217.24 283.744C1218.55 283.744 1219.75 283.52 1220.84 283.072C1221.96 282.624 1223 281.952 1223.96 281.056V276.544C1222.97 275.968 1221.94 275.552 1220.89 275.296C1219.83 275.008 1218.65 274.864 1217.34 274.864C1215.54 274.864 1214.1 275.264 1213.02 276.064C1211.93 276.864 1211.38 277.904 1211.38 279.184ZM1234.54 286V251.68L1238.04 250.96V266.368C1238.94 264.992 1240.01 263.952 1241.26 263.248C1242.51 262.544 1243.91 262.192 1245.48 262.192C1247.98 262.192 1250.01 262.992 1251.58 264.592C1253.18 266.192 1253.98 268.272 1253.98 270.832V286H1250.47V271.84C1250.47 269.792 1249.9 268.16 1248.75 266.944C1247.63 265.728 1246.11 265.12 1244.19 265.12C1242.91 265.12 1241.74 265.424 1240.68 266.032C1239.63 266.64 1238.75 267.536 1238.04 268.72V286H1234.54ZM1294.07 274.288C1294.07 275.984 1293.78 277.568 1293.2 279.04C1292.66 280.512 1291.89 281.792 1290.9 282.88C1289.91 283.936 1288.74 284.784 1287.39 285.424C1286.05 286.032 1284.61 286.336 1283.07 286.336C1281.6 286.336 1280.23 286.048 1278.95 285.472C1277.7 284.864 1276.61 284.016 1275.68 282.928V286H1272.23V251.68L1275.73 250.96V265.792C1276.63 264.704 1277.71 263.856 1278.99 263.248C1280.27 262.608 1281.7 262.288 1283.27 262.288C1284.77 262.288 1286.18 262.608 1287.49 263.248C1288.83 263.856 1289.99 264.704 1290.95 265.792C1291.91 266.848 1292.66 268.112 1293.2 269.584C1293.78 271.056 1294.07 272.624 1294.07 274.288ZM1282.4 265.36C1281.03 265.36 1279.75 265.648 1278.56 266.224C1277.41 266.768 1276.47 267.552 1275.73 268.576V280.048C1276.5 281.072 1277.46 281.872 1278.61 282.448C1279.79 283.024 1281.06 283.312 1282.4 283.312C1284.74 283.312 1286.69 282.464 1288.26 280.768C1289.83 279.04 1290.61 276.896 1290.61 274.336C1290.61 271.776 1289.83 269.648 1288.26 267.952C1286.69 266.224 1284.74 265.36 1282.4 265.36ZM1303.71 250.96V286H1300.21V251.68L1303.71 250.96ZM1318.14 286.432C1315.65 286.432 1313.6 285.776 1312 284.464C1310.43 283.12 1309.65 281.392 1309.65 279.28C1309.65 277.2 1310.45 275.52 1312.05 274.24C1313.68 272.96 1315.81 272.32 1318.43 272.32C1319.78 272.32 1321.04 272.48 1322.22 272.8C1323.44 273.088 1324.56 273.536 1325.58 274.144V270.928C1325.58 269.008 1325.07 267.568 1324.05 266.608C1323.02 265.616 1321.52 265.12 1319.54 265.12C1318.45 265.12 1317.33 265.28 1316.18 265.6C1315.06 265.92 1313.81 266.432 1312.43 267.136L1311.14 264.448C1312.74 263.68 1314.26 263.12 1315.7 262.768C1317.14 262.384 1318.56 262.192 1319.97 262.192C1322.85 262.192 1325.07 262.912 1326.64 264.352C1328.24 265.76 1329.04 267.792 1329.04 270.448V286H1325.58V283.264C1324.56 284.32 1323.42 285.12 1322.18 285.664C1320.93 286.176 1319.58 286.432 1318.14 286.432ZM1313.01 279.184C1313.01 280.56 1313.55 281.664 1314.64 282.496C1315.73 283.328 1317.14 283.744 1318.86 283.744C1320.18 283.744 1321.38 283.52 1322.46 283.072C1323.58 282.624 1324.62 281.952 1325.58 281.056V276.544C1324.59 275.968 1323.57 275.552 1322.51 275.296C1321.46 275.008 1320.27 274.864 1318.96 274.864C1317.17 274.864 1315.73 275.264 1314.64 276.064C1313.55 276.864 1313.01 277.904 1313.01 279.184ZM1336.16 286V251.68L1339.67 250.96V266.368C1340.56 264.992 1341.63 263.952 1342.88 263.248C1344.13 262.544 1345.54 262.192 1347.11 262.192C1349.6 262.192 1351.63 262.992 1353.2 264.592C1354.8 266.192 1355.6 268.272 1355.6 270.832V286H1352.1V271.84C1352.1 269.792 1351.52 268.16 1350.37 266.944C1349.25 265.728 1347.73 265.12 1345.81 265.12C1344.53 265.12 1343.36 265.424 1342.31 266.032C1341.25 266.64 1340.37 267.536 1339.67 268.72V286H1336.16Z" fill="#310F0F"/>
</g>
<defs>
<clipPath id="clip0">
<rect width="1811" height="1061" fill="white"/>
</clipPath>
</defs>
</svg>
