<svg id="Layer_1" data-name="Layer 1" xmlns="http://www.w3.org/2000/svg" viewBox="0 0 972 930"><defs><style>.cls-1,.cls-4{fill:#310f0f;}.cls-1,.cls-2{stroke:#310f0f;stroke-linejoin:bevel;stroke-width:4px;}.cls-2,.cls-5{fill:none;}.cls-3{fill:#301313;}.cls-6{fill:#2f1414;}</style></defs><polygon class="cls-1" points="492.34 616.55 478.15 630.63 477 630.55 465 627.7 448.17 631.85 437 642.91 448.17 624 448.17 599.13 442.49 588.9 443.9 579.02 451.36 572.04 470.01 578.73 470.01 584.3 481.93 583 481.93 599 485 609.76 492.34 616.55"/><path class="cls-2" d="M482,592.73,463.36,586l23-21.51L504,548h1.26c1.16,4.51,2.69,10.52,2.69,10.52h8.33L517.86,548H522l7.53,8.6,0,0L549,578.81l1,1.12,4.48,5.11-5.54,5.22L545.94,593l-7,11.87-9.41-2.32-12.31-9.2-.93,8.59-.8-1.5.8,6.54H504.12l-.12,3.4-7,13.36L493.93,613V597L482,598.3Z" transform="translate(-12 -14)"/><path class="cls-2" d="M864.76,942h-779L114,913,314.71,725.16l1.46,5.34L339,734l9.44-8.38L329,711.82l14.92-14,.66,2.91L365,704V692.33l-1.5-1,1.13-2.34.37.9,7.77-5.93L365,678.09l.13,0,.19,0,.17,0,.37.06.35.06.4.07.45.08.49.09.08,0,.13,0,.86.18c.57.12,1.18.25,1.81.4l1.11.27c.76.2,1.54.41,2.29.65l1.12.37a18.43,18.43,0,0,1,2,.82,4.68,4.68,0,0,1,.55.27,7.44,7.44,0,0,1,.68.38l.41.27a4,4,0,0,1,.37.29l.32.29a3.82,3.82,0,0,1,.27.32,2.49,2.49,0,0,1,.19.3c.25.49.54.62.86.49l.13-.07a2.54,2.54,0,0,0,.56-.6,6.71,6.71,0,0,0,.39-.62c.23-.42.47-.93.7-1.47s.39-1,.58-1.51c.07-.18.13-.36.19-.53,1-2.92,1.81-6.07,1.81-6.07l-9.77-4.49L392,652.85,416.6,629.8l1.08-1L421,632l-2.56,17.91L431.81,638l10.33-32.1,4-3.72.75-.7,3.62,5-6,21.51,6,3,4-28.11,5.68,10.23V638L449,656.91l11.17-11.06L477,641.7l12,2.85,1.15.08,14.19-14.08,6.14,5.68,19.7,1.77h11.17l7.15-7,5.5,4-8.06,30.52,2.86,3L572,679l28.94-10.49v10.91l11.78-15.89,3.61-7.76L841.52,913Z" transform="translate(-12 -14)"/><polygon class="cls-2" points="872 639 870.22 643.67 866.57 642.1 872 639"/><polygon class="cls-2" points="908.93 649.53 908.93 660.26 904.49 658.35 905.49 654.51 897 647.54 895.56 654.53 885.16 650.07 886.62 645 908.93 649.53"/><polygon class="cls-2" points="931.03 669.73 916.49 663.49 917.9 647.02 929.22 646.69 931.03 669.73"/><polygon class="cls-2" points="970 622.64 970 686.43 938.26 672.83 938.26 642.91 940.34 631.04 947 645 970 622.64"/><polygon class="cls-2" points="263.78 436.18 263.78 436.17 262 421 270 429 278.75 438.29 263.78 436.18"/><path class="cls-2" d="M210.28,440.9l-56.64-8-56.64-8V380l56.64-5.13L200,387v30.47l-10.46,11.69h.12c1.47.18,16.17,1.9,18.91,1Z" transform="translate(-12 -14)"/><polygon class="cls-2" points="373.19 513.31 369 553 367.02 565.04 313 583 312.29 484 324.52 484 332.55 480.39 368.72 490 373.19 513.31"/><path class="cls-2" d="M449,481.13v29.1L440,504s-15.24,11.43-16,11l8.4,12.27-4.29-2.07c-1.14-1.24-22.35,43.52-22.35,43.52l1.19,1-10.53,3.5,1.15-21,6.46-25L419,498,441,489Z" transform="translate(-12 -14)"/><polygon class="cls-2" points="426 516 420.43 513.31 430 507 437 509.1 437 528.37 434.01 521 426 516"/><line class="cls-2" x1="434.24" y1="551.86" x2="432" y2="552.79"/><polyline class="cls-2" points="477 534.09 477.21 534 487.18 534"/><path class="cls-3" d="M379,579l-2.6,15.84-5.53,2.3L365,590l-14.91,15.79h0l-.65.68S318,640,316.55,643.33l-9.48-1.63L303,636.23V625.4L325.51,616,325,597Z" transform="translate(-12 -14)"/><line class="cls-2" x1="291" y1="611.4" x2="284.85" y2="613.96"/><polyline class="cls-2" points="438.97 473.2 477 506 477 532"/><polygon class="cls-2" points="970 395.91 970 403.92 918.9 438 807.1 464.52 748.47 478.43 725 484 745.57 473.12 812 438 970 395.91"/><polygon class="cls-3" points="228 637.59 228 652.75 2 765.68 2 731.2 60.86 704.65 60.86 498.75 141.32 503.05 141.32 673.61 228 637.59"/><polygon class="cls-2" points="291 605 291 622.23 284.85 613.96 284.58 613.6 291 605"/><polygon class="cls-2" points="291.01 592.52 291 605 280.33 605 279.38 606.61 273.04 598.08 291.01 592.52"/><polygon class="cls-2" points="293.41 677.21 288 681.06 288 711 282.07 716.5 277 716.5 277 685 237 677 237.2 692.79 237.38 707.06 228 707.06 228 612 233.15 610.41 237.95 633.45 242.84 656.98 291.26 669.38 293.41 677.21"/><polygon class="cls-2" points="340.17 645 340.17 664.25 338.88 665.26 332.55 645 288.28 637.38 295.07 627.7 304.55 629.33 313 637.38 340.17 645"/><path class="cls-2" d="M936,784c-4,22-37,21-37,21s-50,5-81-23S690.32,668.51,690.32,668.51V645.9l5.31,3.56c23.75,15.92,120,80.36,139.37,92.54,22.18,13.92,53,17.76,71,14,24-5,30-19.07,30-19.07S940,762,936,784Z" transform="translate(-12 -14)"/><path class="cls-2" d="M535,418v19.1l-19.7,7.78-.3.12-5.68,6.29-1,11.71H497l-8-7-11.24,3L469,461.46,463.64,463l-4.15-3.32L449,451.29H428.88L417,458l-10.51.53L397,459l-6.85,13.5L385,489H356.52l-12,5.39-8,3.61H303.75l5-25.5L296.08,458l-5.33-5.67L282,443l-8-8,1.78,15.17L256,452l-39,6-10.57-6.71,3.85-10.39-1.71-10.74c-2.74.91-17.44-.81-18.91-1h-.12L200,417.47l4-4.47h14.34l11.92-8.42H240l5.11-11.17L252,382h14l14,7v11.36l16.08-3L308,386l13-8-18-9-16,5-3-10,4-9s10.53-5,13.77,0S321,357.66,321,357.66l4.51-10.79-6.71-12.19h0l6.71-13.76,26.69-3.65L376,314l7,10,17,12,9,10.87L403,357l16-1v-9.13L415,340l4-11h18.82L449,342.76v12.91L460,361l9,11.21,20-4.62L502,380l6,16v8.58l15.5,8.92Z" transform="translate(-12 -14)"/><polygon class="cls-2" points="678.32 431.05 671 437.29 688 449 712.83 449 702 472.76 687.01 489.75 678.32 509.5 665.14 516 655 521 629 513 612.52 498.75 596.93 504.07 592.66 505.53 578.48 501.66 567.83 498.75 547 491 533.08 458.5 500 475 496 463.5 515.2 449 511.5 441.97 503.3 430.88 523 423.1 523 422.87 538.04 429.06 538.04 415.16 550.95 415.16 562 406 582.73 398.28 582.73 390.58 604.58 374.73 621 370 649 379 656.14 386.38 660.19 390.58 663.6 396.14 671 408.21 702 408.21 714 413 713 428 702 431.05 694.95 431.05 690.98 437.29 678.32 431.05"/><path class="cls-2" d="M927.17,730.5l8.83,6.43S930,751,906,756c-18,3.76-48.82-.08-71-14-19.41-12.18-115.62-76.62-139.37-92.54L693,640s-5-14-4.25-13.46c.38.27-5.14-7.3-10.68-14.85-5.24-7.13-10.5-14.24-10.82-14.67l15.75,9.5,7.32-3.07,6-6.45-1.44-6.84-4.52-21.4,13.56,16.17L714,597h6.86l3.72,19L737,602.7l-4.23,14.2,8.94,2.1,9.29-7,2.63,7h8.19L777,623l-2.62-11.55-5.86-25.8,17.31,30.71,2.8,5V597l6,6.81L805.55,616l13.55-21.53-5.05,33.94L831,641l7,18V622l8,5,1.79,4,6.59,14.72L863,665l15.57-8.9,3.65,1.57L876,674l19.89-5.49L905,681l2.56-12.47,8.93,3.82L909,701l11.93-8.17v-7.45l6.24,7.45H936Z" transform="translate(-12 -14)"/><line class="cls-2" x1="655.25" y1="583.02" x2="655.23" y2="583"/><polygon class="cls-2" points="905.49 654.51 904.49 658.35 895.56 654.53 897 647.54 905.49 654.51"/><polygon class="cls-2" points="154.7 605 165 609 168 624 181.52 624 194 618 194 534 185.24 521 177.54 511.24 171.09 511.24 168 527 154.7 529.12 154.7 534 161.41 534 162.23 571.65 162.69 592.52 162.9 602.04 154.7 599.13 154.7 605"/><polygon class="cls-2" points="588.94 654.51 588.94 791.35 578 795 572.5 788.89 569 785 562.87 698.94 550 757 536.8 748.84 533.94 744.27 532 741.16 529.35 736.92 535.46 669.38 535.46 669.37 536.8 654.51 560 665 588.94 654.51"/><polyline class="cls-2" points="161.5 538.3 174.35 546.99 194 542.65"/><polyline class="cls-2" points="162.48 583 179.5 575.3 194 558.91"/><polyline class="cls-2" points="161.5 567.62 179.5 562.63 194 546.99"/><polyline class="cls-2" points="162.69 592.52 183 587 194 576.04"/><path class="cls-2" d="M441.66,558.22l2.34,5V573l-27,5-6.18-5.12L407,569.75l-1.19-1S427,524,428.14,525.24l4.29,2.07L438,530l8,5,3,7.37L439,540l-.43,11.62Z" transform="translate(-12 -14)"/><polygon class="cls-2" points="409 618 406.44 635.91 403 660 393.79 682.55 379.97 669.89 379.97 638.84 389.26 614.93 393.79 603.27 405.1 614.22 405.68 614.79 409 618"/><polygon class="cls-2" points="448.17 599.13 448.17 624 437 642.91 428.8 624 428.8 605 434.11 588.18 434.49 586.96 434.86 587.48 438.48 592.52 432.52 614.03 438.48 617.01 442.49 588.9 448.17 599.13"/><path class="cls-2" d="M455.9,593l-1.41,9.88-4,28.11-6-3,6-21.51-3.62-5-.37-.52-1.91-2.66L445,597l-1.11.33L440.8,593l-9.8,3.14L435.83,586l-24.33,7,12.5,13.5s-1.28,4.06-3.16,10l-5.84.41V602l-14.42-12,4.12-6.91,6.09-10.22L417,578l27-5,1.27,5Z" transform="translate(-12 -14)"/><path class="cls-2" d="M477,569v2.83L470,570l-5,4-11,1-7.76-9.14L444,563.23l-2.34-5-3.09-6.6L439,540l10,2.37V548l1.94-.49c.84,3.54,2.06,7.49,2.06,7.49l4.6,6.14L459,563l10,1.88Z" transform="translate(-12 -14)"/><path class="cls-2" d="M450.94,547.51c-.68-2.88-1.12-5.49-.46-5.47" transform="translate(-12 -14)"/><path class="cls-2" d="M455.9,515l-3.9,9-3-.9-7-2.1-9.57,6.31L424,515c.73.39,16-11,16-11l9,6.23Z" transform="translate(-12 -14)"/><polyline class="cls-2" points="429 516 434 514 437 509.1"/><line class="cls-2" x1="533.94" y1="744.27" x2="532" y2="755"/><polygon class="cls-2" points="550 757 546.79 770.39 544 782 532 782 523 769.5 523 744.27 532 741.16 533.94 744.27 536.8 748.84 550 757"/><polygon class="cls-2" points="588.94 791.35 587 812 584 824 579.23 825.36 570 828 563 816 559.14 804.46 560.53 802.35 565.35 795 572.5 788.89 578 795 588.94 791.35"/><polygon class="cls-4" points="572.5 788.89 565.35 795 560.53 802.35 544 782 546.79 770.39 569 785 572.5 788.89"/><path class="cls-4" d="M780,920s-17.85,13.77-29.15,22H721.78c-26-8.77-67.78-24-67.78-24l-37-46.91-25.77-31.73L596,838l3-12,1.94-20.65,62.81,33L714,848.25,746.75,891Z" transform="translate(-12 -14)"/><path class="cls-2" d="M603.17,572.91,599.45,579,597,583l-15.18-5-3,1-4-4s-9,8.3-10.93,10.65c-.92,1.11-4.44-.32-7.89-2.15h0c-2.35-1.24-4.67-2.66-6.1-3.57-.89-.56-1.44-.93-1.44-.93l.46-.19,9-3.81-12-6.24-4.59-10.24L552,555l2.16-7,1.84-6,15.14-14.73L586,535l8.19,17.3v18.87Z" transform="translate(-12 -14)"/><polyline class="cls-2" points="194 609 177.54 614.03 165 609 185.24 605 194 592.52 240.5 583.38"/><polyline class="cls-2" points="181.3 516 179.5 484 277.85 490 277.85 576.04 271.74 577.24"/><polyline class="cls-2" points="346.87 475 379.97 480.39 391.06 475 391.06 455.88 385 445"/><line class="cls-2" x1="448.17" y1="445" x2="447.49" y2="445.68"/><path class="cls-2" d="M663.75,598.28,648.86,593,641,597l-2.54,1.28L627.5,597l8.44-19-9.43-43-16.88-15.47-.7-1.46,15.59-5.32L641,527l9.75,3S640,531,640,533s3.39,30,3.39,30l9.93,22.64,4.53,5.49Z" transform="translate(-12 -14)"/><path class="cls-2" d="M626,635l-9.42,3-9.93-12-3.2,15-2.51,11.79v15.67L572,679l-23.2-10.49-2.86-3L554,635l-5.5-4-7.15,7H530.18l-6.68-7,7-11.89,8.41-14.23,7-11.87,2.94-2.76,5.54-5.22L556,583.5h0c3.45,1.83,7,3.26,7.89,2.15,1.95-2.35,10.93-10.65,10.93-10.65l4,4,3-1L597,583l2.45-4,17.63,19.28Z" transform="translate(-12 -14)"/><path class="cls-5" d="M626,635" transform="translate(-12 -14)"/><polygon class="cls-2" points="614 621 604.33 641.77 600.72 649.53 588.94 665.42 588.94 638.84 591.45 627.05 594.65 612.01 604.58 624 614 621"/><line class="cls-2" x1="614" y1="621" x2="611.03" y2="621"/><line class="cls-2" x1="487.18" y1="534" x2="474.34" y2="546.99"/><polyline class="cls-2" points="474.34 550.53 487 559.62 504.28 556.19 506.76 555.7 511.5 554.76 517.56 542.65 517.52 542.6"/><polyline class="cls-2" points="495.95 528.04 492.69 516 499.5 505.53 504.28 516.79 504.28 529.12"/><path class="cls-2" d="M406,661l.12-.11C406.06,661,406,661,406,661Z" transform="translate(-12 -14)"/><path class="cls-2" d="M444.58,598.3l-2.44,7.6L431.81,638l-13.37,11.91L421,632l-3.32-3.21-.58-.57c1.36-4.25,2.66-8.3,3.74-11.73,1.88-5.91,3.16-10,3.16-10L411.5,593l24.33-7L431,596.16l-2.76,5.8,15.65-4.63Z" transform="translate(-12 -14)"/><path class="cls-2" d="M421,632l-2.56,17.91-12.32,11c.91-1.57,6-17,10.48-31.09.17-.53.33-1.06.5-1.58l.58.57Z" transform="translate(-12 -14)"/><polygon class="cls-2" points="433 583 432.58 584.3 431.89 583.33 433 583"/><path class="cls-2" d="M529.52,556.6,522,548h-4.13l-1.58,10.52H508s-1.53-6-2.69-10.52h-6.08l4.82-4.88,12.28-.9,2.48-.18Z" transform="translate(-12 -14)"/><polyline class="cls-2" points="566.92 517.33 566.92 505.53 578.48 501.66"/><polygon class="cls-2" points="253.52 599 260.65 619.37 247.59 605.94 238.13 595.41 240.5 592.52 240.5 564.03 254.01 554.76 266.43 564.83 267.78 568 256.5 576.04 255.94 580.35 253.52 599"/><polygon class="cls-2" points="295.07 627.7 291 627 291 622.23 295.07 627.7"/><path class="cls-2" d="M347.94,639.94s.06-18.94,0-20.94l8.53-1.73V631L365,649.46Z" transform="translate(-12 -14)"/><path class="cls-2" d="M375.23,668.51l-3-19L358.87,635l3.4-17.73,3.26-1.37L381,609.41l-6-7.31-4.05-4.92L365,590l-14.91,15.79h0l-.65.68S318,640,316.55,643.33l8.45,8L352.17,659v19.25l-1.29,1,1.29,4.12,4.12,2.87,7.21,5,1.13-2.34.37.9,7.77-5.93L365,678.09l.13,0,.19,0,.17,0,2.06.36.08,0,.28.05.71.15c.57.12,1.18.25,1.81.4l1.11.27c.76.2,1.54.41,2.29.65.38.11.76.24,1.12.37a18.43,18.43,0,0,1,2,.82,5.6,5.6,0,0,1,.55.27,7.44,7.44,0,0,1,.68.38l.41.27a4,4,0,0,1,.37.29l.32.29a3.82,3.82,0,0,1,.27.32,2.49,2.49,0,0,1,.19.3c.25.49.54.62.86.49l.13-.07a2.54,2.54,0,0,0,.56-.6,6.71,6.71,0,0,0,.39-.62c.23-.42.47-.93.7-1.47s.39-1,.58-1.51c.07-.18.13-.36.19-.53,1-2.92,1.81-6.07,1.81-6.07Zm-27.29-28.57s.06-18.94,0-20.94l8.53-1.73V631L365,649.46Z" transform="translate(-12 -14)"/><polygon class="cls-1" points="398.79 558.91 392.7 569.13 383.7 572.87 384.45 559.25 394.98 555.75 398.79 558.91"/><polygon class="cls-2" points="457 447.46 438.97 465.2 437 467.13 429 475 406.95 484 392.06 513.31 385.6 538.3 384.45 559.25 383.7 572.87 382.62 592.52 392 599 403 596.9 403 602.9 393.79 603.27 382.62 605 377.23 602.9 367.23 599 353.53 601.9 368.97 595.41 362.94 588.1 363.26 587.96 364.42 580.88 367.02 565.04 369 553 373.19 513.31 368.72 490 332.55 480.39 344.52 475 373 475 378.15 458.5 385 445 394.49 444.53 400 452 400 467.79 412 469.78 428.8 464.52 437 456.26 447.49 445.68 451.64 449 457 447.46"/><polygon class="cls-2" points="437 448 437 456.26 428.8 464.52 412 469.78 400 467.79 400 452 394.49 444.53 405 444 416.88 437.29 426.05 437.29 437 448"/><path class="cls-2" d="M347.94,639.94s.06-18.94,0-20.94l8.53-1.73V631L365,649.46Z" transform="translate(-12 -14)"/><polyline class="cls-2" points="809.16 587.96 816.11 587.96 834.48 599 892.62 614.51"/><path class="cls-2" d="M926.67,634.4,910,630V613s-16,10-17.87,12" transform="translate(-12 -14)"/><polyline class="cls-2" points="243.59 617.01 256.99 643.21 265.93 646.69 280.83 625.95 288.28 637.38"/><polygon class="cls-2" points="321.46 657.22 291 652 306 659 307.58 667.11 313 695 316.97 697.82 336.44 711.62 327 720 304.17 716.5 302.71 711.16 299.74 700.33 293.41 677.21 291.26 669.38 242.84 656.98 237.95 633.45 233.15 610.41 231.67 603.27 238.13 595.41 247.59 605.94 260.65 619.37 253.52 599 255.94 580.35 256.5 576.04 267.78 568 271.74 577.24 262.46 592.52 268.91 592.52 273.04 598.08 279.38 606.61 280.33 605 291 605 284.58 613.6 284.85 613.96 291 622.23 291 627 295.07 627.7 288.28 637.38 332.55 645 338.88 665.26 340.17 669.38 344.29 672.25 351.5 677.29 353 678.33 353 690 332.55 686.77 331.89 683.86 326 658 321.46 657.22"/><line class="cls-2" x1="284.58" y1="613.6" x2="284.08" y2="614.27"/><line class="cls-2" x1="279.38" y1="606.61" x2="271.83" y2="619.37"/><line class="cls-2" x1="513.71" y1="534" x2="542.16" y2="534"/><polygon class="cls-2" points="947 593 940.34 631.04 938.26 642.91 938.26 684.79 932 682 931.03 669.73 929.22 646.69 917.9 647.02 916.49 663.49 915.17 678.83 908.93 671.38 908.93 649.53 886.62 645 885.16 650.07 870.22 643.67 872 639 866.57 642.1 842.38 631.73 835.79 617.01 860.8 624 892.62 614.51 898.04 615.96 898.04 619.37 882.65 625.94 877.68 637.38 887.86 635.46 911.45 638.84 914.67 620.4 918.4 599 938.26 594.83 947 593"/><line class="cls-2" x1="885.16" y1="650.07" x2="883.89" y2="654.51"/><line class="cls-2" x1="807.1" y1="602.86" x2="826" y2="612.01"/><polyline class="cls-2" points="901.02 612.01 898.04 612.9 892.62 614.51"/><polygon class="cls-3" points="970 439.07 970 622.64 947 645 940.34 631.04 947 593 938.26 594.83 938.26 583 919 571 898 550 884.63 564.83 891.59 583 885.4 591.26 860.3 584.28 845.49 583.76 807.1 505.41 797.96 487.17 752.17 485.18 757 494 746.59 498.75 757.52 507.36 772.41 507.36 759.01 534 718.29 544.52 710.13 575.05 705.35 583 702 583 691.88 570.93 696.94 568 698.92 544.52 684.52 533.51 671 531.7 666.65 521 665.14 516 678.32 509.5 687.01 489.75 702 472.76 712.83 449 702 449 702 445.68 708 441 721 450 725 438 741 431 759 451 737.21 457.86 745.57 473.12 725 484 748.47 478.43 807.1 464.52 918.9 438 970 439.07"/><polygon class="cls-2" points="845.49 583.76 824.06 583 813.05 564.83 819 547 807.1 538.3 789 551 789 564.83 780 575 783 588 782.68 589.81 776.63 583 776.63 603.55 773.83 602.36 756.52 571.65 762.38 597.45 710.13 575.05 718.29 544.52 759.01 534 772.41 507.36 757.52 507.36 746.59 498.75 757 494 752.17 485.18 797.96 487.17 807.1 505.41 845.49 583.76"/><polygon class="cls-2" points="970 234.5 970 439.07 918.9 438 807.1 464.52 748.47 478.43 725 484 745.57 473.12 737.21 457.86 759 451 741 431 725 438 721 450 708 441 702 445.68 702 431.05 713 428 714 413 702 408.21 702 402 745.57 374.77 970 234.5"/><polygon class="cls-2" points="885.4 591.26 876.69 602.9 857.5 602.04 846 602.04 837.96 592.52 824.06 583 845.49 583.76 860.3 584.28 885.4 591.26"/><polygon class="cls-2" points="938.26 583 938.26 594.83 918.4 599 914.67 620.4 911.45 638.84 887.86 635.46 877.68 637.38 882.65 625.94 898.04 619.37 898.04 615.96 892.62 614.51 860.8 624 835.79 617.01 834 613 826 608 826 624.71 802.05 614.45 807.1 580.51 793.55 602.04 782.68 589.81 783 588 780 575 789 564.83 789 551 807.1 538.3 819 547 813.05 564.83 824.06 583 837.96 592.52 846 602.04 857.5 602.04 876.69 602.9 885.4 591.26 891.59 583 884.63 564.83 898 550 919 571 938.26 583"/><polygon class="cls-2" points="954.45 342.17 954.45 381.89 819 428 819 402.25 954.45 334.22 954.45 342.17"/><polyline class="cls-2" points="504.28 556.19 506.76 565 505.21 579.37"/><polyline class="cls-2" points="492.12 593 492.69 576.04 501.79 567.62 499.5 579.02 503.48 586.46"/><polyline class="cls-2" points="495.95 544.52 488.72 554.76 487 559.62 487 571.65 481.93 579.02 481.93 583"/><line class="cls-2" x1="504.28" y1="544.52" x2="506.76" y2="555.7"/><polygon class="cls-4" points="964.13 720 925.78 711.62 970 750.94 970 815.94 964.13 817.37 900.53 789.61 900.52 789.61 900.52 741.16 904.41 738.91 916.49 731.9 916.99 717.83 917.38 707.07 917.38 707.06 917.39 707.02 924 685.19 922.72 684.27 915.17 678.83 916.49 663.49 931.03 669.73 938.26 684.79 968.06 695 970 696.68 970 720 964.13 720"/><polygon class="cls-4" points="277 685 277 700.33 237.2 692.79 237 677 277 685"/><line class="cls-5" x1="284.08" y1="701.67" x2="277" y2="700.33"/><line class="cls-5" x1="237.2" y1="692.79" x2="231.67" y2="691.74"/><polygon class="cls-4" points="299.74 700.33 288 698.23 288 681.06 293.41 677.21 299.74 700.33"/><line class="cls-5" x1="288" y1="698.23" x2="287.79" y2="698.19"/><path class="cls-4" d="M508,645.85l-3.26,17.21L482,681.11l-33,2.27-2.76,15.81-25.24,13-11.47-9.53H392S410,729,409.52,730.5,367,746,367,746l-50.83-15.5L339,734l9.44-8.38L329,711.82,325,709l-5.42-27.89L318,673l-15-7,30.46,5.22L338,672l5.89,25.86.66,2.91L365,704V692.33l-1.5-1,9.27-7.37L365,678.09l.13,0,.19,0,.17,0,2.06.36.08,0,14.79,2.56,9.55,5.26,13.82,10.18,6.27-5.55,31.83-17.45,9.82-10.49L449,656.91l11.17-11.06L477,641.7l12,2.85,1.15.08Z" transform="translate(-12 -14)"/><polygon class="cls-4" points="353 678.33 353 690 351.5 677.29 353 678.33"/><path class="cls-6" d="M696.28,597l-6,6.45L683,606.52,667.25,597c.32.43,5.58,7.54,10.82,14.67L641,597l7.89-4,14.89,5.26-5.9-7.14L683,597l11.84-6.84Z" transform="translate(-12 -14)"/><line class="cls-5" x1="684.52" y1="605" x2="666.07" y2="597.69"/><polyline class="cls-2" points="678.32 453.53 691.99 449 702 445.68"/><line class="cls-2" x1="748.47" y1="478.43" x2="745.57" y2="473.12"/><line class="cls-2" x1="705.35" y1="583" x2="702" y2="588.57"/><polygon class="cls-4" points="518.52 605.12 511.5 617.01 518.18 624 498.48 622.23 492.34 616.55 485 609.76 492 596.4 492.12 593 504.28 593 503.48 586.46 504.28 587.96 505.21 579.37 517.52 588.57 526.93 590.89 518.52 605.12"/><polyline class="cls-2" points="518.18 624 518.18 638.84 535.46 669.38"/><line class="cls-5" x1="502.35" y1="606.61" x2="492.34" y2="616.55"/><line class="cls-5" x1="478.15" y1="630.63" x2="470.01" y2="638.71"/><polygon class="cls-4" points="393.79 603.27 389.26 614.93 377.23 602.9 382.62 605 393.79 603.27"/><polygon class="cls-4" points="389.26 614.93 379.97 614.93 377.23 602.9 389.26 614.93"/><path class="cls-2" d="M127,778" transform="translate(-12 -14)"/><polygon class="cls-1" points="477 532 477 534.09 445.6 547.14 441 541 477 532"/><polygon class="cls-1" points="198.28 426.9 141.64 418.88 141.64 360.87 188 373 188 403.47 177.54 415.16 177.66 415.17 196.57 416.16 198.28 426.9"/><line class="cls-2" x1="85" y1="412.28" x2="85" y2="410.87"/><path class="cls-2" d="M449,355.67V342.76L437.82,329H419l-4,11,4,6.87V356l-16,1,6-10.13L400,336l-17-12-7-10-23.8,3.26-26.69,3.65-6.71,13.76h0l6.71,12.19L321,357.66S305,360,301.77,355,288,355,288,355l-4,9,3,10,16-5,18,9-13,8-11.92,11.38-16.08,3V389l-14-7H252l-6.89,11.41L240,404.58h-9.74L218.34,413H204l-4,4.47V387l-46.36-12.13L97,380v44.87L14,413.12V134.18L219.06,99.32l92.68-15.76L426.42,290.5,451,334.81Z" transform="translate(-12 -14)"/><polygon class="cls-2" points="970 2 970 234.5 745.57 374.77 741.7 240.21 740 181 796.2 106.86 845.8 41.45 871.5 7.54 875.7 2 970 2"/><path class="cls-2" d="M982,248.5V942H14V413.12l83,11.75V380l56.64-5.13L200,387v30.47l4-4.47h14.34l11.92-8.42H240l5.11-11.17L252,382h14l14,7v11.36l16.08-3L308,386l13-8-18-9-16,5-3-10,4-9s10.53-5,13.77,0S321,357.66,321,357.66l4.51-10.79-6.71-12.19h0l6.71-13.76,26.69-3.65L376,314l7,10,17,12,9,10.87L403,357l16-1v-9.13L415,340l4-11h18.82L449,342.76v12.91l2-20.86L426.42,290.5,311.74,83.56,219.06,99.32,14,134.18V16H887.7l-4.2,5.54L857.8,55.45l-49.6,65.41L752,195l1.7,59.21,3.87,134.56Z" transform="translate(-12 -14)"/><polygon class="cls-2" points="745.57 374.77 702 402 702 408.21 671 408.21 663.6 396.14 660.19 390.58 656.14 386.38 655.23 353 741.7 240.21 745.57 374.77"/><path class="cls-2" d="M637.49,148.45v49s-21.56,22.89-20.45,22,16.89,31.16,16.89,31.16l37.48-31.16,33.31-26,32.12-45,71.36-27.59" transform="translate(-12 -14)"/><polyline class="cls-2" points="845.8 41.45 815.25 65.16 786.57 65.16 824.34 28.09 842.31 8.67 871.5 7.54"/><polyline class="cls-2" points="625.49 143.88 653.04 81.74 740.64 59.02 793.2 8.67 808.15 2"/><polyline class="cls-2" points="299.82 2 320.38 35.52 338.82 111.23 359.24 152.18 375.88 158.81 398.92 178.5 440.94 183.07 457.94 203.82 438.55 205.81 410.51 196.4 440.69 229.27 442.99 214.59 497.55 267.32 470.07 263.02 414.42 276.5"/><polyline class="cls-2" points="202.12 2 203.27 3.11 194.36 60.02 207.06 85.32"/><line class="cls-2" x1="187.5" y1="334.5" x2="183.5" y2="326.5"/><line class="cls-2" x1="209" y1="350" x2="202.75" y2="350"/><line class="cls-2" x1="154.7" y1="344.15" x2="159.17" y2="350"/><line class="cls-2" x1="129.38" y1="344.15" x2="134" y2="341"/><line class="cls-2" x1="150" y1="323" x2="159.17" y2="323"/><line class="cls-2" x1="183.5" y1="353.59" x2="183.5" y2="360.87"/><line class="cls-2" x1="73.78" y1="363.02" x2="78.23" y2="357.23"/><line class="cls-2" x1="92.63" y1="342.58" x2="97.1" y2="347.08"/><line class="cls-2" x1="110.51" y1="326.5" x2="112.5" y2="334.5"/><line class="cls-2" x1="94.87" y1="384.87" x2="103" y2="381"/><line class="cls-2" x1="112.5" y1="393.88" x2="119" y2="399"/><line class="cls-2" x1="119" y1="357.23" x2="124.41" y2="363.02"/><line class="cls-2" x1="129.38" y1="311.88" x2="136" y2="307"/><line class="cls-2" x1="85" y1="326.5" x2="92.63" y2="326.5"/></svg>